# xmcd
# 
# Track frame offsets:
#     150
#     22692
#     41489
#     59925
#     81737
#     101540
#     123311
#     142080
#     160838
#     181795
#     207109
#     225576
#     246487
#     268642
#     289505
#     310725
# 
# Disc length: 4453
# 
# Revision: 1
# Processed by: cddbd v1.5.2PL0 Copyright (c) Steve Scherf et al.
# Submitted via: BonkEnc v1.0.8
# 
DISCID=e1116310
DTITLE=Celine Dion - Let's Talk About Love
DYEAR=1997
DGENRE=Easy Listening
TTITLE0=The Reason
TTITLE1=Immortality
TTITLE2=Treat Her Like A Lady
TTITLE3=Why Oh Why
TTITLE4=Love Is On The Way
TTITLE5=Tell Him (duet with Barbara Streisand)
TTITLE6=Amar Haciendo El Amor
TTITLE7=When I Need You
TTITLE8=Miles To Go (Before I Sleep)
TTITLE9=Us
TTITLE10=Just A Little Bit Of Love
TTITLE11=My Heart Will Go On (Love Theme From 'Titanic')
TTITLE12=Where Is The Love
TTITLE13=Be The Man
TTITLE14=I Hate You Then I Love You (duet with Luciano Pavarotti)
TTITLE15=Let's Talk About Love
EXTD=YEAR: 1997 ID3G: 98
EXTT0=
EXTT1=
EXTT2=
EXTT3=
EXTT4=
EXTT5=
EXTT6=
EXTT7=
EXTT8=
EXTT9=
EXTT10=
EXTT11=
EXTT12=
EXTT13=
EXTT14=
EXTT15=
PLAYORDER=
